<mxfile host="app.diagrams.net" agent="Mozilla/5.0 (Macintosh; Intel Mac OS X 10_15_7) AppleWebKit/537.36 (KHTML, like Gecko) Chrome/131.0.0.0 Safari/537.36 Edg/131.0.0.0" version="25.0.1">
  <diagram name="Page-1" id="2XkydZ_qq0bTm6DZ_uJH">
    <mxGraphModel dx="1050" dy="561" grid="1" gridSize="10" guides="1" tooltips="1" connect="1" arrows="1" fold="1" page="1" pageScale="1" pageWidth="850" pageHeight="1100" math="0" shadow="0">
      <root>
        <mxCell id="0" />
        <mxCell id="1" parent="0" />
        <mxCell id="jhuBCiHocxDCwif4aOSH-8" style="rounded=0;orthogonalLoop=1;jettySize=auto;html=1;exitX=0.25;exitY=0;exitDx=0;exitDy=0;entryX=0.5;entryY=1;entryDx=0;entryDy=0;endArrow=none;endFill=0;" edge="1" parent="1" source="jhuBCiHocxDCwif4aOSH-1" target="jhuBCiHocxDCwif4aOSH-4">
          <mxGeometry relative="1" as="geometry" />
        </mxCell>
        <mxCell id="jhuBCiHocxDCwif4aOSH-9" style="edgeStyle=none;shape=connector;rounded=0;orthogonalLoop=1;jettySize=auto;html=1;exitX=0.5;exitY=0;exitDx=0;exitDy=0;entryX=0.5;entryY=1;entryDx=0;entryDy=0;strokeColor=default;align=center;verticalAlign=middle;fontFamily=Helvetica;fontSize=11;fontColor=default;labelBackgroundColor=default;endArrow=none;endFill=0;" edge="1" parent="1" source="jhuBCiHocxDCwif4aOSH-1" target="jhuBCiHocxDCwif4aOSH-5">
          <mxGeometry relative="1" as="geometry" />
        </mxCell>
        <mxCell id="jhuBCiHocxDCwif4aOSH-10" style="edgeStyle=none;shape=connector;rounded=0;orthogonalLoop=1;jettySize=auto;html=1;exitX=0.75;exitY=0;exitDx=0;exitDy=0;entryX=0.5;entryY=1;entryDx=0;entryDy=0;strokeColor=default;align=center;verticalAlign=middle;fontFamily=Helvetica;fontSize=11;fontColor=default;labelBackgroundColor=default;endArrow=none;endFill=0;" edge="1" parent="1" source="jhuBCiHocxDCwif4aOSH-1" target="jhuBCiHocxDCwif4aOSH-6">
          <mxGeometry relative="1" as="geometry">
            <Array as="points">
              <mxPoint x="200" y="150" />
            </Array>
          </mxGeometry>
        </mxCell>
        <mxCell id="jhuBCiHocxDCwif4aOSH-19" style="edgeStyle=none;shape=connector;rounded=0;orthogonalLoop=1;jettySize=auto;html=1;exitX=1;exitY=0.5;exitDx=0;exitDy=0;entryX=0;entryY=0.5;entryDx=0;entryDy=0;strokeColor=default;align=center;verticalAlign=middle;fontFamily=Helvetica;fontSize=11;fontColor=default;labelBackgroundColor=default;endArrow=none;endFill=0;startArrow=ERzeroToMany;startFill=0;" edge="1" parent="1" source="jhuBCiHocxDCwif4aOSH-1" target="jhuBCiHocxDCwif4aOSH-18">
          <mxGeometry relative="1" as="geometry" />
        </mxCell>
        <mxCell id="jhuBCiHocxDCwif4aOSH-1" value="Sailor" style="whiteSpace=wrap;html=1;align=center;" vertex="1" parent="1">
          <mxGeometry x="120" y="160" width="100" height="40" as="geometry" />
        </mxCell>
        <mxCell id="jhuBCiHocxDCwif4aOSH-13" style="edgeStyle=none;shape=connector;rounded=0;orthogonalLoop=1;jettySize=auto;html=1;exitX=0.25;exitY=0;exitDx=0;exitDy=0;entryX=0.5;entryY=1;entryDx=0;entryDy=0;strokeColor=default;align=center;verticalAlign=middle;fontFamily=Helvetica;fontSize=11;fontColor=default;labelBackgroundColor=default;endArrow=none;endFill=0;" edge="1" parent="1" source="jhuBCiHocxDCwif4aOSH-2" target="jhuBCiHocxDCwif4aOSH-12">
          <mxGeometry relative="1" as="geometry" />
        </mxCell>
        <mxCell id="jhuBCiHocxDCwif4aOSH-15" style="edgeStyle=none;shape=connector;rounded=0;orthogonalLoop=1;jettySize=auto;html=1;exitX=0.5;exitY=0;exitDx=0;exitDy=0;entryX=0.5;entryY=1;entryDx=0;entryDy=0;strokeColor=default;align=center;verticalAlign=middle;fontFamily=Helvetica;fontSize=11;fontColor=default;labelBackgroundColor=default;endArrow=none;endFill=0;" edge="1" parent="1" source="jhuBCiHocxDCwif4aOSH-2" target="jhuBCiHocxDCwif4aOSH-14">
          <mxGeometry relative="1" as="geometry" />
        </mxCell>
        <mxCell id="jhuBCiHocxDCwif4aOSH-17" style="edgeStyle=none;shape=connector;rounded=0;orthogonalLoop=1;jettySize=auto;html=1;exitX=0.75;exitY=0;exitDx=0;exitDy=0;entryX=0;entryY=1;entryDx=0;entryDy=0;strokeColor=default;align=center;verticalAlign=middle;fontFamily=Helvetica;fontSize=11;fontColor=default;labelBackgroundColor=default;endArrow=none;endFill=0;" edge="1" parent="1" source="jhuBCiHocxDCwif4aOSH-2" target="jhuBCiHocxDCwif4aOSH-16">
          <mxGeometry relative="1" as="geometry" />
        </mxCell>
        <mxCell id="jhuBCiHocxDCwif4aOSH-2" value="Boats" style="whiteSpace=wrap;html=1;align=center;" vertex="1" parent="1">
          <mxGeometry x="490" y="160" width="100" height="40" as="geometry" />
        </mxCell>
        <mxCell id="jhuBCiHocxDCwif4aOSH-4" value="sid" style="ellipse;whiteSpace=wrap;html=1;align=center;fontStyle=4" vertex="1" parent="1">
          <mxGeometry x="50" y="110" width="50" height="20" as="geometry" />
        </mxCell>
        <mxCell id="jhuBCiHocxDCwif4aOSH-5" value="sname" style="ellipse;whiteSpace=wrap;html=1;align=center;" vertex="1" parent="1">
          <mxGeometry x="120" y="100" width="50" height="20" as="geometry" />
        </mxCell>
        <mxCell id="jhuBCiHocxDCwif4aOSH-6" value="rating" style="ellipse;whiteSpace=wrap;html=1;align=center;" vertex="1" parent="1">
          <mxGeometry x="190" y="100" width="50" height="20" as="geometry" />
        </mxCell>
        <mxCell id="jhuBCiHocxDCwif4aOSH-7" value="age" style="ellipse;whiteSpace=wrap;html=1;align=center;" vertex="1" parent="1">
          <mxGeometry x="230" y="130" width="50" height="20" as="geometry" />
        </mxCell>
        <mxCell id="jhuBCiHocxDCwif4aOSH-11" style="edgeStyle=none;shape=connector;rounded=0;orthogonalLoop=1;jettySize=auto;html=1;exitX=0.75;exitY=0;exitDx=0;exitDy=0;entryX=0;entryY=0.5;entryDx=0;entryDy=0;strokeColor=default;align=center;verticalAlign=middle;fontFamily=Helvetica;fontSize=11;fontColor=default;labelBackgroundColor=default;endArrow=none;endFill=0;" edge="1" parent="1" source="jhuBCiHocxDCwif4aOSH-1" target="jhuBCiHocxDCwif4aOSH-7">
          <mxGeometry relative="1" as="geometry">
            <mxPoint x="205" y="170" as="sourcePoint" />
            <mxPoint x="225" y="130" as="targetPoint" />
            <Array as="points" />
          </mxGeometry>
        </mxCell>
        <mxCell id="jhuBCiHocxDCwif4aOSH-12" value="bid" style="ellipse;whiteSpace=wrap;html=1;align=center;fontStyle=4" vertex="1" parent="1">
          <mxGeometry x="460" y="120" width="50" height="20" as="geometry" />
        </mxCell>
        <mxCell id="jhuBCiHocxDCwif4aOSH-14" value="bname" style="ellipse;whiteSpace=wrap;html=1;align=center;" vertex="1" parent="1">
          <mxGeometry x="540" y="100" width="50" height="20" as="geometry" />
        </mxCell>
        <mxCell id="jhuBCiHocxDCwif4aOSH-16" value="color" style="ellipse;whiteSpace=wrap;html=1;align=center;" vertex="1" parent="1">
          <mxGeometry x="600" y="130" width="50" height="20" as="geometry" />
        </mxCell>
        <mxCell id="jhuBCiHocxDCwif4aOSH-20" style="edgeStyle=none;shape=connector;rounded=0;orthogonalLoop=1;jettySize=auto;html=1;exitX=1;exitY=0.5;exitDx=0;exitDy=0;entryX=0;entryY=0.5;entryDx=0;entryDy=0;strokeColor=default;align=center;verticalAlign=middle;fontFamily=Helvetica;fontSize=11;fontColor=default;labelBackgroundColor=default;endArrow=ERzeroToMany;endFill=0;" edge="1" parent="1" source="jhuBCiHocxDCwif4aOSH-18" target="jhuBCiHocxDCwif4aOSH-2">
          <mxGeometry relative="1" as="geometry" />
        </mxCell>
        <mxCell id="jhuBCiHocxDCwif4aOSH-22" style="edgeStyle=none;shape=connector;rounded=0;orthogonalLoop=1;jettySize=auto;html=1;exitX=0.5;exitY=1;exitDx=0;exitDy=0;strokeColor=default;align=center;verticalAlign=middle;fontFamily=Helvetica;fontSize=11;fontColor=default;labelBackgroundColor=default;endArrow=none;endFill=0;" edge="1" parent="1" source="jhuBCiHocxDCwif4aOSH-18" target="jhuBCiHocxDCwif4aOSH-21">
          <mxGeometry relative="1" as="geometry" />
        </mxCell>
        <mxCell id="jhuBCiHocxDCwif4aOSH-18" value="reserves" style="shape=rhombus;perimeter=rhombusPerimeter;whiteSpace=wrap;html=1;align=center;fontFamily=Helvetica;fontSize=11;fontColor=default;labelBackgroundColor=default;" vertex="1" parent="1">
          <mxGeometry x="300" y="155" width="100" height="50" as="geometry" />
        </mxCell>
        <mxCell id="jhuBCiHocxDCwif4aOSH-21" value="day" style="ellipse;whiteSpace=wrap;html=1;align=center;fontFamily=Helvetica;fontSize=11;fontColor=default;labelBackgroundColor=default;" vertex="1" parent="1">
          <mxGeometry x="350" y="240" width="50" height="20" as="geometry" />
        </mxCell>
      </root>
    </mxGraphModel>
  </diagram>
</mxfile>
